<?xml version="1.0" encoding="UTF-8"?>
<svg width="120px" height="83px" viewBox="0 0 120 83" version="1.1" xmlns="http://www.w3.org/2000/svg" xmlns:xlink="http://www.w3.org/1999/xlink">
    <!-- Generator: Sketch 41.2 (35397) - http://www.bohemiancoding.com/sketch -->
    <title>Group 7</title>
    <desc>Created with Sketch.</desc>
    <defs></defs>
    <g id="Page-1" stroke="none" stroke-width="1" fill="none" fill-rule="evenodd">
        <g id="Group-7" transform="translate(0.000000, -1.000000)" fill="#52BCA6">
            <path d="M118.536585,83.4146341 L1.46341463,83.4146341 C0.655193049,83.4146341 0,82.7594411 0,81.9512195 C0,81.1429979 0.655193049,80.4878049 1.46341463,80.4878049 L118.536585,80.4878049 C119.344807,80.4878049 120,81.1429979 120,81.9512195 C120,82.7594411 119.344807,83.4146341 118.536585,83.4146341 Z" id="Shape"></path>
            <path d="M29.2682927,59.7365854 C29.0878695,59.7352081 28.9092566,59.7004778 28.7414634,59.6341463 L13.2731707,53.604878 C12.7643626,53.4302085 12.3924085,52.9904626 12.3045597,52.4597293 C12.2167109,51.928996 12.4271325,51.3928533 12.8525217,51.0635522 C13.2779109,50.734251 13.8496759,50.6648895 14.3414634,50.8829268 L28.8878049,56.5463415 L43.2292683,40.9756098 C43.5991485,40.5713235 44.1638947,40.4075471 44.6926829,40.5512195 L65.4,46.2 L90.2780488,30.3073171 C90.8110748,29.9683558 91.5014351,30.0096594 91.9902439,30.4097561 L108.336585,43.8585366 C108.90107,44.3864115 108.957767,45.2622314 108.466055,45.858481 C107.974343,46.4547306 107.103751,46.5658376 106.478049,46.1121951 L91.0097561,33.2780488 L66.4243902,48.9512195 C66.0762972,49.1720323 65.6512182,49.2357942 65.2536585,49.1268293 L44.7658537,43.5365854 L30.3804878,59.2682927 C30.0943698,59.577096 29.6891239,59.7477258 29.2682927,59.7365854 L29.2682927,59.7365854 Z" id="Shape"></path>
            <path d="M13.8146341,43.4634146 C13.2238409,43.4668851 12.6889093,43.1147695 12.4584999,42.5707472 C12.2280905,42.026725 12.347403,41.3975178 12.7609756,40.9756098 L28.2439024,25.0536585 C28.5963215,24.6911475 29.1108959,24.5362219 29.604878,24.6439024 L53.897561,30 L64.3902439,14.6341463 C64.7384257,14.1307718 65.3630921,13.8972517 65.9560976,14.0487805 L87.804878,19.6097561 L106.44878,1.46341463 C106.812547,1.05172743 107.376244,0.87845612 107.908447,1.01473676 C108.440651,1.15101739 108.851694,1.57388935 108.972825,2.10974372 C109.093956,2.6455981 108.904766,3.20415388 108.482927,3.55609756 L89.2682927,22.2878049 C88.9039512,22.6395676 88.3836345,22.7779497 87.8926829,22.6536585 L66.2634146,17.195122 L55.7560976,32.4878049 C55.4276905,32.9568894 54.8558634,33.1913385 54.2926829,33.0878049 L29.7804878,27.6878049 L14.8536585,43.0243902 C14.5798955,43.3036912 14.2057257,43.4617911 13.8146341,43.4634146 Z" id="Shape"></path>
            <path d="M13.8146341,82.9756098 C13.0064126,82.9756098 12.3512195,82.3204167 12.3512195,81.5121951 L12.3512195,42 C12.3512195,41.1917784 13.0064126,40.5365854 13.8146341,40.5365854 C14.6228557,40.5365854 15.2780488,41.1917784 15.2780488,42 L15.2780488,81.5121951 C15.2780488,82.3204167 14.6228557,82.9756098 13.8146341,82.9756098 Z" id="Shape"></path>
            <path d="M107.473171,82.9756098 C106.664949,82.9756098 106.009756,82.3204167 106.009756,81.5121951 L106.009756,2.48780488 C106.009756,1.67958329 106.664949,1.02439024 107.473171,1.02439024 C108.281392,1.02439024 108.936585,1.67958329 108.936585,2.48780488 L108.936585,81.5121951 C108.936585,82.3204167 108.281392,82.9756098 107.473171,82.9756098 Z" id="Shape"></path>
            <ellipse id="Oval" transform="translate(103.081549, 36.093560) rotate(-45.000000) translate(-103.081549, -36.093560) " cx="103.081549" cy="36.0935604" rx="1.46341463" ry="1.46341463"></ellipse>
            <ellipse id="Oval" transform="translate(103.079617, 31.701384) rotate(-45.000000) translate(-103.079617, -31.701384) " cx="103.079617" cy="31.7013843" rx="1.46341463" ry="1.46341463"></ellipse>
            <ellipse id="Oval" transform="translate(103.077684, 27.309208) rotate(-45.000000) translate(-103.077684, -27.309208) " cx="103.077684" cy="27.3092082" rx="1.46341463" ry="1.46341463"></ellipse>
            <ellipse id="Oval" transform="translate(103.075752, 22.917032) rotate(-45.000000) translate(-103.075752, -22.917032) " cx="103.075752" cy="22.9170321" rx="1.46341463" ry="1.46341463"></ellipse>
            <ellipse id="Oval" transform="translate(103.073820, 18.539490) rotate(-45.000000) translate(-103.073820, -18.539490) " cx="103.07382" cy="18.5394901" rx="1.46341463" ry="1.46341463"></ellipse>
            <ellipse id="Oval" transform="translate(103.086522, 14.147314) rotate(-45.000000) translate(-103.086522, -14.147314) " cx="103.086522" cy="14.147314" rx="1.46341463" ry="1.46341463"></ellipse>
            <ellipse id="Oval" transform="translate(103.084590, 9.755138) rotate(-45.000000) translate(-103.084590, -9.755138) " cx="103.08459" cy="9.75513786" rx="1.46341463" ry="1.46341463"></ellipse>
            <circle id="Oval" transform="translate(98.689373, 36.095493) rotate(-45.000000) translate(-98.689373, -36.095493) " cx="98.6893727" cy="36.0954926" r="1.46341463"></circle>
            <ellipse id="Oval" transform="translate(98.687440, 31.703316) rotate(-45.000000) translate(-98.687440, -31.703316) " cx="98.6874404" cy="31.7033165" rx="1.46341463" ry="1.46341463"></ellipse>
            <ellipse id="Oval" transform="translate(98.685508, 27.311140) rotate(-45.000000) translate(-98.685508, -27.311140) " cx="98.6855082" cy="27.3111404" rx="1.46341463" ry="1.46341463"></ellipse>
            <ellipse id="Oval" transform="translate(98.683576, 22.918964) rotate(-45.000000) translate(-98.683576, -22.918964) " cx="98.683576" cy="22.9189643" rx="1.46341463" ry="1.46341463"></ellipse>
            <ellipse id="Oval" transform="translate(98.696278, 18.526788) rotate(-45.000000) translate(-98.696278, -18.526788) " cx="98.696278" cy="18.5267881" rx="1.46341463" ry="1.46341463"></ellipse>
            <ellipse id="Oval" transform="translate(98.694346, 14.149246) rotate(-45.000000) translate(-98.694346, -14.149246) " cx="98.6943458" cy="14.1492462" rx="1.46341463" ry="1.46341463"></ellipse>
            <ellipse id="Oval" transform="translate(94.295264, 31.705249) rotate(-45.000000) translate(-94.295264, -31.705249) " cx="94.2952643" cy="31.7052487" rx="1.46341463" ry="1.46341463"></ellipse>
            <ellipse id="Oval" transform="translate(94.293332, 27.313073) rotate(-45.000000) translate(-94.293332, -27.313073) " cx="94.2933321" cy="27.3130726" rx="1.46341463" ry="1.46341463"></ellipse>
            <ellipse id="Oval" transform="translate(94.306034, 22.920896) rotate(-45.000000) translate(-94.306034, -22.920896) " cx="94.3060341" cy="22.9208965" rx="1.46341463" ry="1.46341463"></ellipse>
            <ellipse id="Oval" transform="translate(94.304102, 18.528720) rotate(-45.000000) translate(-94.304102, -18.528720) " cx="94.3041019" cy="18.5287204" rx="1.46341463" ry="1.46341463"></ellipse>
            <ellipse id="Oval" transform="translate(89.915790, 27.315005) rotate(-45.000000) translate(-89.915790, -27.315005) " cx="89.9157902" cy="27.3150048" rx="1.46341463" ry="1.46341463"></ellipse>
            <ellipse id="Oval" transform="translate(89.913858, 22.922829) rotate(-45.000000) translate(-89.913858, -22.922829) " cx="89.9138579" cy="22.9228287" rx="1.46341463" ry="1.46341463"></ellipse>
            <ellipse id="Oval" transform="translate(85.525546, 31.709113) rotate(-45.000000) translate(-85.525546, -31.709113) " cx="85.5255463" cy="31.7091131" rx="1.46341463" ry="1.46341463"></ellipse>
            <ellipse id="Oval" transform="translate(85.523614, 27.316937) rotate(-45.000000) translate(-85.523614, -27.316937) " cx="85.523614" cy="27.316937" rx="1.46341463" ry="1.46341463"></ellipse>
            <ellipse id="Oval" transform="translate(85.521682, 22.924761) rotate(-45.000000) translate(-85.521682, -22.924761) " cx="85.5216818" cy="22.9247609" rx="1.46341463" ry="1.46341463"></ellipse>
            <ellipse id="Oval" transform="translate(81.135302, 36.088587) rotate(-45.000000) translate(-81.135302, -36.088587) " cx="81.1353024" cy="36.0885873" rx="1.46341463" ry="1.46341463"></ellipse>
            <ellipse id="Oval" transform="translate(81.133370, 31.711045) rotate(-45.000000) translate(-81.133370, -31.711045) " cx="81.1333701" cy="31.7110453" rx="1.46341463" ry="1.46341463"></ellipse>
            <ellipse id="Oval" transform="translate(81.131438, 27.318869) rotate(-45.000000) translate(-81.131438, -27.318869) " cx="81.1314379" cy="27.3188692" rx="1.46341463" ry="1.46341463"></ellipse>
            <ellipse id="Oval" transform="translate(81.129506, 22.926693) rotate(-45.000000) translate(-81.129506, -22.926693) " cx="81.1295057" cy="22.9266931" rx="1.46341463" ry="1.46341463"></ellipse>
            <ellipse id="Oval" transform="translate(76.743126, 36.090520) rotate(-45.000000) translate(-76.743126, -36.090520) " cx="76.7431262" cy="36.0905195" rx="1.46341463" ry="1.46341463"></ellipse>
            <ellipse id="Oval" transform="translate(76.741194, 31.698343) rotate(-45.000000) translate(-76.741194, -31.698343) " cx="76.741194" cy="31.6983434" rx="1.46341463" ry="1.46341463"></ellipse>
            <ellipse id="Oval" transform="translate(76.739262, 27.320801) rotate(-45.000000) translate(-76.739262, -27.320801) " cx="76.7392618" cy="27.3208014" rx="1.46341463" ry="1.46341463"></ellipse>
            <ellipse id="Oval" transform="translate(76.737330, 22.928625) rotate(-45.000000) translate(-76.737330, -22.928625) " cx="76.7373296" cy="22.9286253" rx="1.46341463" ry="1.46341463"></ellipse>
            <ellipse id="Oval" transform="translate(72.352882, 40.484628) rotate(-45.000000) translate(-72.352882, -40.484628) " cx="72.3528823" cy="40.4846278" rx="1.46341463" ry="1.46341463"></ellipse>
            <ellipse id="Oval" transform="translate(72.350950, 36.092452) rotate(-45.000000) translate(-72.350950, -36.092452) " cx="72.3509501" cy="36.0924517" rx="1.46341463" ry="1.46341463"></ellipse>
            <ellipse id="Oval" transform="translate(72.349018, 31.700276) rotate(-45.000000) translate(-72.349018, -31.700276) " cx="72.3490179" cy="31.7002756" rx="1.46341463" ry="1.46341463"></ellipse>
            <ellipse id="Oval" transform="translate(72.347086, 27.308099) rotate(-45.000000) translate(-72.347086, -27.308099) " cx="72.3470857" cy="27.3080995" rx="1.46341463" ry="1.46341463"></ellipse>
            <ellipse id="Oval" transform="translate(72.345153, 22.930558) rotate(-45.000000) translate(-72.345153, -22.930558) " cx="72.3451535" cy="22.9305575" rx="1.46341463" ry="1.46341463"></ellipse>
            <ellipse id="Oval" transform="translate(72.343221, 18.538381) rotate(-45.000000) translate(-72.343221, -18.538381) " cx="72.3432213" cy="18.5383814" rx="1.46341463" ry="1.46341463"></ellipse>
            <ellipse id="Oval" transform="translate(67.962638, 44.878736) rotate(-45.000000) translate(-67.962638, -44.878736) " cx="67.9626384" cy="44.8787361" rx="1.46341463" ry="1.46341463"></ellipse>
            <ellipse id="Oval" transform="translate(67.960706, 40.486560) rotate(-45.000000) translate(-67.960706, -40.486560) " cx="67.9607062" cy="40.48656" rx="1.46341463" ry="1.46341463"></ellipse>
            <ellipse id="Oval" transform="translate(67.958774, 36.094384) rotate(-45.000000) translate(-67.958774, -36.094384) " cx="67.958774" cy="36.0943839" rx="1.46341463" ry="1.46341463"></ellipse>
            <ellipse id="Oval" transform="translate(67.956842, 31.702208) rotate(-45.000000) translate(-67.956842, -31.702208) " cx="67.9568418" cy="31.7022078" rx="1.46341463" ry="1.46341463"></ellipse>
            <ellipse id="Oval" transform="translate(67.954910, 27.310032) rotate(-45.000000) translate(-67.954910, -27.310032) " cx="67.9549096" cy="27.3100317" rx="1.46341463" ry="1.46341463"></ellipse>
            <ellipse id="Oval" transform="translate(67.952977, 22.917856) rotate(-45.000000) translate(-67.952977, -22.917856) " cx="67.9529774" cy="22.9178556" rx="1.46341463" ry="1.46341463"></ellipse>
            <ellipse id="Oval" transform="translate(67.951045, 18.540314) rotate(-45.000000) translate(-67.951045, -18.540314) " cx="67.9510452" cy="18.5403136" rx="1.46341463" ry="1.46341463"></ellipse>
            <ellipse id="Oval" transform="translate(63.570462, 44.880668) rotate(-45.000000) translate(-63.570462, -44.880668) " cx="63.5704623" cy="44.8806684" rx="1.46341463" ry="1.46341463"></ellipse>
            <ellipse id="Oval" transform="translate(63.568530, 40.488492) rotate(-45.000000) translate(-63.568530, -40.488492) " cx="63.5685301" cy="40.4884922" rx="1.46341463" ry="1.46341463"></ellipse>
            <circle id="Oval" transform="translate(63.566598, 36.096316) rotate(-45.000000) translate(-63.566598, -36.096316) " cx="63.5665979" cy="36.0963161" r="1.46341463"></circle>
            <circle id="Oval" transform="translate(63.564666, 31.704140) rotate(-45.000000) translate(-63.564666, -31.704140) " cx="63.5646657" cy="31.70414" r="1.46341463"></circle>
            <circle id="Oval" transform="translate(63.562733, 27.311964) rotate(-45.000000) translate(-63.562733, -27.311964) " cx="63.5627335" cy="27.3119639" r="1.46341463"></circle>
            <ellipse id="Oval" transform="translate(63.560801, 22.919788) rotate(-45.000000) translate(-63.560801, -22.919788) " cx="63.5608013" cy="22.9197878" rx="1.46341463" ry="1.46341463"></ellipse>
            <ellipse id="Oval" transform="translate(59.178286, 44.867966) rotate(-45.000000) translate(-59.178286, -44.867966) " cx="59.1782862" cy="44.8679664" rx="1.46341463" ry="1.46341463"></ellipse>
            <ellipse id="Oval" transform="translate(59.176354, 40.490424) rotate(-45.000000) translate(-59.176354, -40.490424) " cx="59.176354" cy="40.4904245" rx="1.46341463" ry="1.46341463"></ellipse>
            <ellipse id="Oval" transform="translate(59.174422, 36.098248) rotate(-45.000000) translate(-59.174422, -36.098248) " cx="59.1744218" cy="36.0982483" rx="1.46341463" ry="1.46341463"></ellipse>
            <circle id="Oval" transform="translate(59.172490, 31.706072) rotate(-45.000000) translate(-59.172490, -31.706072) " cx="59.1724896" cy="31.7060722" r="1.46341463"></circle>
            <ellipse id="Oval" transform="translate(59.170557, 27.313896) rotate(-45.000000) translate(-59.170557, -27.313896) " cx="59.1705574" cy="27.3138961" rx="1.46341463" ry="1.46341463"></ellipse>
            <circle id="Oval" transform="translate(54.784178, 40.477723) rotate(-45.000000) translate(-54.784178, -40.477723) " cx="54.7841779" cy="40.4777225" r="1.46341463"></circle>
            <circle id="Oval" transform="translate(54.782246, 36.100181) rotate(-45.000000) translate(-54.782246, -36.100181) " cx="54.7822457" cy="36.1001806" r="1.46341463"></circle>
            <ellipse id="Oval" transform="translate(50.392002, 40.479655) rotate(-45.000000) translate(-50.392002, -40.479655) " cx="50.3920018" cy="40.4796547" rx="1.46341463" ry="1.46341463"></ellipse>
            <circle id="Oval" transform="translate(50.390070, 36.087479) rotate(-45.000000) translate(-50.390070, -36.087479) " cx="50.3900696" cy="36.0874786" r="1.46341463"></circle>
            <ellipse id="Oval" transform="translate(50.402772, 31.709937) rotate(-45.000000) translate(-50.402772, -31.709937) " cx="50.4027715" cy="31.7099366" rx="1.46341463" ry="1.46341463"></ellipse>
            <ellipse id="Oval" transform="translate(45.999826, 40.481587) rotate(-45.000000) translate(-45.999826, -40.481587) " cx="45.9998257" cy="40.4815869" rx="1.46341463" ry="1.46341463"></ellipse>
            <ellipse id="Oval" transform="translate(46.012528, 36.089411) rotate(-45.000000) translate(-46.012528, -36.089411) " cx="46.0125276" cy="36.0894108" rx="1.46341463" ry="1.46341463"></ellipse>
            <circle id="Oval" transform="translate(46.010595, 31.697235) rotate(-45.000000) translate(-46.010595, -31.697235) " cx="46.0105954" cy="31.6972347" r="1.46341463"></circle>
            <ellipse id="Oval" transform="translate(41.622284, 40.483519) rotate(-45.000000) translate(-41.622284, -40.483519) " cx="41.6222837" cy="40.4835191" rx="1.46341463" ry="1.46341463"></ellipse>
            <ellipse id="Oval" transform="translate(41.620351, 36.091343) rotate(-45.000000) translate(-41.620351, -36.091343) " cx="41.6203515" cy="36.091343" rx="1.46341463" ry="1.46341463"></ellipse>
            <ellipse id="Oval" transform="translate(41.618419, 31.699167) rotate(-45.000000) translate(-41.618419, -31.699167) " cx="41.6184193" cy="31.6991669" rx="1.46341463" ry="1.46341463"></ellipse>
            <circle id="Oval" transform="translate(37.232040, 44.877627) rotate(-45.000000) translate(-37.232040, -44.877627) " cx="37.2320398" cy="44.8776275" r="1.46341463"></circle>
            <ellipse id="Oval" transform="translate(37.230108, 40.485451) rotate(-45.000000) translate(-37.230108, -40.485451) " cx="37.2301076" cy="40.4854514" rx="1.46341463" ry="1.46341463"></ellipse>
            <ellipse id="Oval" transform="translate(37.228175, 36.093275) rotate(-45.000000) translate(-37.228175, -36.093275) " cx="37.2281754" cy="36.0932752" rx="1.46341463" ry="1.46341463"></ellipse>
            <circle id="Oval" transform="translate(37.226243, 31.701099) rotate(-45.000000) translate(-37.226243, -31.701099) " cx="37.2262432" cy="31.7010991" r="1.46341463"></circle>
            <ellipse id="Oval" transform="translate(32.841796, 49.271736) rotate(-45.000000) translate(-32.841796, -49.271736) " cx="32.8417959" cy="49.2717358" rx="1.46341463" ry="1.46341463"></ellipse>
            <ellipse id="Oval" transform="translate(32.839864, 44.879560) rotate(-45.000000) translate(-32.839864, -44.879560) " cx="32.8398637" cy="44.8795597" rx="1.46341463" ry="1.46341463"></ellipse>
            <ellipse id="Oval" transform="translate(32.837931, 40.487384) rotate(-45.000000) translate(-32.837931, -40.487384) " cx="32.8379315" cy="40.4873836" rx="1.46341463" ry="1.46341463"></ellipse>
            <ellipse id="Oval" transform="translate(32.835999, 36.095207) rotate(-45.000000) translate(-32.835999, -36.095207) " cx="32.8359993" cy="36.0952075" rx="1.46341463" ry="1.46341463"></ellipse>
            <ellipse id="Oval" transform="translate(32.834067, 31.703031) rotate(-45.000000) translate(-32.834067, -31.703031) " cx="32.8340671" cy="31.7030313" rx="1.46341463" ry="1.46341463"></ellipse>
            <ellipse id="Oval" transform="translate(28.451552, 53.651210) rotate(-45.000000) translate(-28.451552, -53.651210) " cx="28.451552" cy="53.65121" rx="1.46341463" ry="1.46341463"></ellipse>
            <ellipse id="Oval" transform="translate(28.449620, 49.259034) rotate(-45.000000) translate(-28.449620, -49.259034) " cx="28.4496198" cy="49.2590339" rx="1.46341463" ry="1.46341463"></ellipse>
            <ellipse id="Oval" transform="translate(28.447688, 44.881492) rotate(-45.000000) translate(-28.447688, -44.881492) " cx="28.4476876" cy="44.8814919" rx="1.46341463" ry="1.46341463"></ellipse>
            <ellipse id="Oval" transform="translate(28.445755, 40.489316) rotate(-45.000000) translate(-28.445755, -40.489316) " cx="28.4457554" cy="40.4893158" rx="1.46341463" ry="1.46341463"></ellipse>
            <ellipse id="Oval" transform="translate(28.443823, 36.097140) rotate(-45.000000) translate(-28.443823, -36.097140) " cx="28.4438232" cy="36.0971397" rx="1.46341463" ry="1.46341463"></ellipse>
            <ellipse id="Oval" transform="translate(28.441891, 31.704964) rotate(-45.000000) translate(-28.441891, -31.704964) " cx="28.4418909" cy="31.7049636" rx="1.46341463" ry="1.46341463"></ellipse>
            <circle id="Oval" transform="translate(24.059376, 53.653142) rotate(-45.000000) translate(-24.059376, -53.653142) " cx="24.0593759" cy="53.6531422" r="1.46341463"></circle>
            <ellipse id="Oval" transform="translate(24.057444, 49.260966) rotate(-45.000000) translate(-24.057444, -49.260966) " cx="24.0574437" cy="49.2609661" rx="1.46341463" ry="1.46341463"></ellipse>
            <ellipse id="Oval" transform="translate(24.055511, 44.868790) rotate(-45.000000) translate(-24.055511, -44.868790) " cx="24.0555115" cy="44.86879" rx="1.46341463" ry="1.46341463"></ellipse>
            <ellipse id="Oval" transform="translate(24.053579, 40.491248) rotate(-45.000000) translate(-24.053579, -40.491248) " cx="24.0535792" cy="40.491248" rx="1.46341463" ry="1.46341463"></ellipse>
            <ellipse id="Oval" transform="translate(24.051647, 36.099072) rotate(-45.000000) translate(-24.051647, -36.099072) " cx="24.051647" cy="36.0990719" rx="1.46341463" ry="1.46341463"></ellipse>
            <ellipse id="Oval" transform="translate(19.667200, 53.655074) rotate(-45.000000) translate(-19.667200, -53.655074) " cx="19.6671998" cy="53.6550744" rx="1.46341463" ry="1.46341463"></ellipse>
            <ellipse id="Oval" transform="translate(19.665268, 49.262898) rotate(-45.000000) translate(-19.665268, -49.262898) " cx="19.6652676" cy="49.2628983" rx="1.46341463" ry="1.46341463"></ellipse>
            <ellipse id="Oval" transform="translate(19.663335, 44.870722) rotate(-45.000000) translate(-19.663335, -44.870722) " cx="19.6633353" cy="44.8707222" rx="1.46341463" ry="1.46341463"></ellipse>
            <ellipse id="Oval" transform="translate(19.661403, 40.478546) rotate(-45.000000) translate(-19.661403, -40.478546) " cx="19.6614031" cy="40.4785461" rx="1.46341463" ry="1.46341463"></ellipse>
            <ellipse id="Oval" transform="translate(19.659471, 36.101004) rotate(-45.000000) translate(-19.659471, -36.101004) " cx="19.6594709" cy="36.1010041" rx="1.46341463" ry="1.46341463"></ellipse>
            <ellipse id="Oval" transform="translate(15.273091, 49.264830) rotate(-45.000000) translate(-15.273091, -49.264830) " cx="15.2730914" cy="49.2648305" rx="1.46341463" ry="1.46341463"></ellipse>
            <ellipse id="Oval" transform="translate(15.271159, 44.872654) rotate(-45.000000) translate(-15.271159, -44.872654) " cx="15.2711592" cy="44.8726544" rx="1.46341463" ry="1.46341463"></ellipse>
            <ellipse id="Oval" transform="translate(15.269227, 40.480478) rotate(-45.000000) translate(-15.269227, -40.480478) " cx="15.269227" cy="40.4804783" rx="1.46341463" ry="1.46341463"></ellipse>
        </g>
    </g>
</svg>