<?xml version="1.0" encoding="utf-8"?>
<!-- Generator: Adobe Illustrator 19.2.1, SVG Export Plug-In . SVG Version: 6.00 Build 0)  -->
<svg version="1.1" id="twitter" xmlns="http://www.w3.org/2000/svg" xmlns:xlink="http://www.w3.org/1999/xlink" x="0px" y="0px"
	 viewBox="0 0 30 90" style="enable-background:new 0 0 30 90;" xml:space="preserve">
<style type="text/css">
	.st0{fill:#FFFFFF;}
</style>
<title>Shape</title>
<desc>Created with Sketch.</desc>
<g id="Facebook-z">
	<g id="Facebook-Landing-Page-Copy" transform="translate(-716 -6174)">
		<g id="Facebook-Group-17" transform="translate(646 6174)">
			<path id="Facebook-Shape" class="st0" d="M91.5,2.5l-3.4,0c-3.8,0-6.2,2.4-6.2,6.2v2.8h-3.4c-0.3,0-0.5,0.2-0.5,0.5v4.1
				c0,0.3,0.2,0.5,0.5,0.5h3.4V27c0,0.3,0.2,0.5,0.5,0.5h4.4c0.3,0,0.5-0.2,0.5-0.5V16.6h3.9c0.3,0,0.5-0.2,0.5-0.5l0-4.1
				c0-0.1-0.1-0.3-0.2-0.4s-0.2-0.1-0.4-0.1h-3.9V9.1c0-1.2,0.3-1.7,1.8-1.7l2.3,0c0.3,0,0.5-0.2,0.5-0.5V3
				C92,2.7,91.7,2.5,91.5,2.5z"/>
		</g>
	</g>
</g>
<title>XMLID_13_</title>
<desc>Created with Sketch.</desc>
<g id="Instagram-z">
	<g id="Instagram-Landing-Page-Copy" transform="translate(-775 -6174)">
		<g id="Instagram-Group-17" transform="translate(646 6174)">
			<g id="Instagram-XMLID_13_" transform="translate(129)">
				<path id="Instagram-XMLID_17_" class="st0" d="M20.1,32.5H9.9c-4.1,0-7.4,3.3-7.4,7.4v10.1c0,4.1,3.3,7.4,7.4,7.4h10.1
					c4.1,0,7.4-3.3,7.4-7.4V39.9C27.5,35.8,24.2,32.5,20.1,32.5L20.1,32.5z M25,50.1c0,2.7-2.2,4.9-4.9,4.9H9.9
					C7.2,55,5,52.8,5,50.1V39.9C5,37.2,7.2,35,9.9,35h10.1c2.7,0,4.9,2.2,4.9,4.9L25,50.1L25,50.1z"/>
				<path id="Instagram-XMLID_81_" class="st0" d="M15,38.5c-3.6,0-6.5,2.9-6.5,6.5c0,3.6,2.9,6.5,6.5,6.5c3.6,0,6.5-2.9,6.5-6.5
					S18.5,38.5,15,38.5z M15,48.9c-2.2,0-3.9-1.8-3.9-3.9S12.8,41,15,41s3.9,1.8,3.9,3.9S17.2,48.9,15,48.9z"/>
				<ellipse id="Instagram-XMLID_83_" class="st0" cx="21.4" cy="38.6" rx="1.5" ry="1.5"/>
			</g>
		</g>
	</g>
</g>
<title>Shape</title>
<desc>Created with Sketch.</desc>
<g id="twitter-z">
	<g id="twitter-Landing-Page-Copy" transform="translate(-646 -6174)">
		<g id="twitter-Group-17" transform="translate(646 6174)">
			<path id="twitter-Shape" class="st0" d="M29.5,65.8c-0.7,0.3-1.4,0.5-2.1,0.7c0.8-0.7,1.4-1.6,1.7-2.6v0c0.1-0.3-0.2-0.5-0.5-0.4
				c-1,0.6-2.1,1-3.2,1.3c-0.1,0-0.1,0-0.2,0c-0.2,0-0.4-0.1-0.6-0.2c-1.2-1-2.7-1.6-4.3-1.6c-0.7,0-1.4,0.1-2,0.3
				c-2.1,0.6-3.7,2.3-4.2,4.3c-0.2,0.8-0.2,1.5-0.2,2.3c0,0.1,0,0.1-0.1,0.2c0,0-0.1,0.1-0.2,0.1c0,0,0,0,0,0
				c-4.6-0.4-8.7-2.5-11.7-6h0C2,64,1.7,64,1.6,64.2c-0.6,0.9-0.9,2-0.9,3.1c0,1.7,0.7,3.3,1.9,4.4c-0.5-0.1-1-0.3-1.5-0.5
				c-0.2-0.1-0.5,0-0.5,0.3c0,2.5,1.5,4.7,3.8,5.7c0,0-0.1,0-0.1,0c-0.4,0-0.7,0-1.1-0.1c-0.3,0-0.5,0.2-0.4,0.4
				c0.7,2.2,2.7,3.9,5.1,4.2c-2,1.3-4.3,2-6.7,2l-0.7,0c-0.2,0-0.4,0.1-0.5,0.4c-0.1,0.2,0,0.4,0.2,0.5C2.9,86.2,6,87,9.2,87
				c2.7,0,5.3-0.5,7.6-1.6c2.1-0.9,4-2.3,5.6-4c1.5-1.6,2.6-3.5,3.4-5.5c0.8-2,1.2-4,1.2-6v-0.1c0-0.3,0.2-0.6,0.4-0.8
				c1-0.8,1.9-1.7,2.6-2.7C30.1,66,29.8,65.7,29.5,65.8L29.5,65.8z"/>
		</g>
	</g>
</g>
</svg>
