<?xml version="1.0" encoding="UTF-8" standalone="no"?>
<svg xmlns="http://www.w3.org/2000/svg" height="600px" width="900px" version="1.1" xmlns:xlink="http://www.w3.org/1999/xlink" viewBox="0 0 900 600"><!-- Generator: Sketch 41.2 (35397) - http://www.bohemiancoding.com/sketch -->
 <title>Project end</title>
 <desc>Created with Sketch.</desc>
 <style>#Header-BG{animation:changeBg 5s infinite}#cursor{transform:translate(300px,210px);animation:moveCursor 5s infinite}.box{opacity:0}.box:nth-child(1){animation:fadeInBoxes0 5s infinite}.box:nth-child(2){animation:fadeInBoxes1 5s infinite}.box:nth-child(3){animation:fadeInBoxes2 5s infinite}.box:nth-child(4){animation:fadeInBoxes3 5s infinite}.box:nth-child(5){animation:fadeInBoxes4 5s infinite}#Title{transform:translate(395px,136px);animation:moveTitle 5s infinite}#Rectangle-11{width:0;animation:moveTitleRect0 5s infinite}#Rectangle-11-Copy{width:0;animation:moveTitleRect1 5s infinite}#Rectangle-11-Copy-2{animation:moveTitleRect 5s infinite}#Add-New-Box{animation:fadeOut 5s infinite}@keyframes moveCursor{0%,10%{transform:translate(300px,210px)}20%,23%{transform:translate(162px,210px)}100%,42%{transform:translate(380px,210px)}}@keyframes fadeOut{20%{opacity:1}100%,30%{opacity:0}}@keyframes changeBg{20%{height:80px;fill:#545454;transform:translate(0,0)}30%{height:80px;fill:#52BCA6;transform:translate(0,22px)}100%,35%{height:124px;fill:#52BCA6;transform:translate(0,0)}}@keyframes moveTitle{20%{transform:translate(395px,136px)}100%,30%{transform:translate(331px,150px)}}@keyframes moveTitleRect{20%{transform:translate(0,0)}100%,30%{transform:translate(128px,0)}}@keyframes moveTitleRect0{20%{width:0}100%,30%{width:72px}}@keyframes moveTitleRect1{20%{width:0}100%,30%{width:36px}}@keyframes fadeInBoxes4{30%{opacity:0}100%,43%{opacity:1}}@keyframes fadeInBoxes3{37%{opacity:0}100%,50%{opacity:1}}@keyframes fadeInBoxes2{44%{opacity:0}100%,57%{opacity:1}}@keyframes fadeInBoxes1{51%{opacity:0}100%,64%{opacity:1}}@keyframes fadeInBoxes0{58%{opacity:0}100%,71%{opacity:1}}</style>
 <defs>
  <rect id="path-1" y="19" x="0" height="400" width="600"/>
  <filter id="filter-2" height="200%" width="200%" y="-50%" x="-50%" filterUnits="objectBoundingBox">
   <feOffset in="SourceAlpha" result="shadowOffsetOuter1" dx="10" dy="10"/>
   <feGaussianBlur stdDeviation="15" result="shadowBlurOuter1" in="shadowOffsetOuter1"/>
   <feColorMatrix type="matrix" values="0 0 0 0 0.321568627   0 0 0 0 0.737254902   0 0 0 0 0.650980392  0 0 0 0.3 0" in="shadowBlurOuter1"/>
  </filter>
  <rect id="path-3" rx="4" height="110" width="240" y="0" x="0"/>
  <mask id="mask-4" maskContentUnits="userSpaceOnUse" height="110" width="240" y="0" x="0" maskUnits="objectBoundingBox" fill="white">
   <use xlink:href="#path-3"/>
  </mask>
 </defs>
 <g id="Page-1" fill-rule="evenodd" fill="none">
  <g id="Project-end">
   <g id="Browser" transform="translate(150 81)">
    <g id="Rectangle-7">
     <use filter="url(#filter-2)" xlink:href="#path-1" fill="black"/>
     <use xlink:href="#path-1" fill-rule="evenodd" fill="#FFFFFF"/>
    </g>
    <g id="BrowserBar">
     <rect id="Rectangle-8" height="20" width="600" y="0" x="0" fill="#D8D8D8"/>
     <circle id="Oval-3" cy="10" cx="42" r="4" fill="#52BCA6"/>
     <circle id="Oval-3-Copy" cy="10" cx="28" r="4" fill="#F5E72C"/>
     <circle id="Oval-3-Copy-2" cy="10" cx="14" r="4" fill="#EF767A"/>
    </g>
   </g>
   <rect id="Header-BG" height="80" width="600" y="101" x="150" fill="#545454"/>
   <g id="Title" fill="#fff" transform="translate(331 150)">
    <rect id="Rectangle-11" rx="2" height="10" width="72" y="0" x="0"/>
    <rect id="Rectangle-11-Copy" rx="2" height="10" width="36" y="0" x="82"/>
    <rect id="Rectangle-11-Copy-2" rx="2" height="10" width="110" y="0" x="0"/>
   </g>
   <g>
   <g id="Description-Two-Box" transform="translate(395 331)" class="box">
    <rect id="Background" rx="4" height="110" width="110" y="0" x="0" fill="#F2F2F2"/>
    <g id="Paragraph-Two" fill="#D8D8D8" transform="translate(12 60)">
     <rect id="Rectangle-15-Copy-14" y="0" x="0" height="2" width="86"/>
     <rect id="Rectangle-15-Copy-17" y="4" x="0" height="2" width="86"/>
     <rect id="Rectangle-15-Copy-16" y="8" x="0" height="2" width="76"/>
     <rect id="Rectangle-15-Copy-14" y="12" x="0" height="2" width="86"/>
     <rect id="Rectangle-15-Copy-17" y="16" x="0" height="2" width="86"/>
     <rect id="Rectangle-15-Copy-16" y="20" x="0" height="2" width="76"/>
    </g>
    <rect id="Title-Two" height="4" width="36" y="50" x="12" fill="#545454"/>
    <g id="Paragraph-One" fill="#D8D8D8" transform="translate(12 24)">
     <rect id="Rectangle-15-Copy-14" y="0" x="0" height="2" width="86"/>
     <rect id="Rectangle-15-Copy-17" y="4" x="0" height="2" width="86"/>
     <rect id="Rectangle-15-Copy-16" y="8" x="0" height="2" width="76"/>
    </g>
    <rect id="Title-One" height="4" width="72" y="13" x="12" fill="#545454"/>
   </g>
   <g id="Settings-Box" transform="translate(265 331)" class="box">
    <rect id="Background" rx="4" height="110" width="110" y="0" x="0" fill="#F2F2F2"/>
    <g id="Settings" transform="translate(12 53)">
     <rect id="Rectangle-15-Copy-23" height="4" width="44" y="1" x="0" fill="#52BCA6"/>
     <rect id="Rectangle-15-Copy-24" height="4" width="44" y="14" x="0" fill="#52BCA6"/>
     <g id="Switch" transform="translate(73)">
      <path id="Oval-4-Copy" fill="#fff" d="m3 6h6v-6c0 2.2204e-14 -5.1642-4.5475e-13 -6-4.5475e-13 -1.6569 0-3 1.3431-3 3s1.3431 3 3 3z"/>
      <circle id="Oval-4" cy="3" cx="9" r="3" fill="#52BCA6"/>
     </g>
     <g id="Switch-Copy" transform="translate(73 13)">
      <path id="Oval-4-Copy" fill="#fff" d="m3 6h6v-6c0 2.2204e-14 -5.1642-4.5475e-13 -6-4.5475e-13 -1.6569 0-3 1.3431-3 3s1.3431 3 3 3z"/>
      <circle id="Oval-4" cy="3" cx="9" r="3" fill="#52BCA6"/>
     </g>
     <rect id="Rectangle-15-Copy-25" height="4" width="44" y="27" x="0" fill="#52BCA6"/>
     <g id="Switch-Off" transform="translate(79 29) rotate(180) translate(-6 -3)">
      <path id="Oval-4-Copy" fill="#fff" d="m3 6h6v-6c0 7.9936e-15 -5.1642-4.6896e-13 -6-4.6896e-13 -1.6569 0-3 1.3431-3 3 1.4211e-14 1.6569 1.3431 3 3 3z"/>
      <circle id="Oval-4" cy="3" cx="9" r="3" fill="#AEAEAE"/>
     </g>
    </g>
    <rect id="Title-Two" height="4" width="62" y="42" x="12" fill="#AEAEAE"/>
    <g id="Line-One" fill="#52BCA6" transform="translate(12 21)">
     <rect id="Rectangle-15-Copy-19" y="0" x="0" height="4" width="23"/>
     <rect id="Rectangle-15-Copy-20" y="0" x="31" height="4" width="23"/>
     <rect id="Rectangle-15-Copy-21" y="0" x="62" height="4" width="23"/>
    </g>
    <rect id="Title-One" height="4" width="62" y="13" x="12" fill="#AEAEAE"/>
   </g>
   <g id="Member-Card" transform="translate(525 201)" class="box">
    <rect id="Background" rx="4" height="110" width="110" y="0" x="0" fill="#F2F2F2"/>
    <g id="User-1" transform="translate(10 10)">
     <path id="Shape-Copy" fill="#52BCA6" d="m7.9981 0c-4.4256 0-7.9981 3.5396-7.9981 7.9245 0 0.2818 0.017774 0.5459 0.035547 0.8101 0.19551 1.9904 1.1553 3.7684 2.5772 5.0544 0.0889 0.07 0.16 0.141 0.2488 0.211 0.4622-0.37 0.9776-0.652 1.5641-0.81l1.3686-0.405c0.4621-0.141 0.7109-0.634 0.551-1.074-0.0356-0.088-0.0889-0.176-0.1422-0.247l-0.942-1.039c-0.6754-0.7571-0.9776-1.7785-0.8176-2.7822l0.2133-1.3912c0.1422-0.9334 0.6754-1.761 1.4574-2.2893 1.1375-0.7573 2.6127-0.7749 3.768-0.0529h0.0178c0.8711 0.5459 1.4401 1.4441 1.5461 2.4654l0.16 1.3208c0.107 0.9686-0.195 1.9195-0.835 2.6594l-0.9778 1.092c-0.071 0.07-0.1066 0.158-0.1421 0.246-0.16 0.458 0.0888 0.951 0.5509 1.074l1.369 0.405c0.568 0.176 1.102 0.458 1.564 0.81 0.089-0.07 0.177-0.14 0.249-0.211 1.421-1.285 2.381-3.064 2.577-5.054 0.035-0.2642 0.035-0.5283 0.035-0.8101 0-4.3673-3.59-7.9069-7.9979-7.9069z"/>
     <path id="Combined-Shape" fill="#52BCA6" d="m83.75 8l-2.5-2.5-1.25 1.25 2.812 2.8125 0.938 0.9375 6.25-6.25-1.25-1.25-5 5z"/>
     <rect id="Rectangle-13" height="4" width="44" y="3" x="21" fill="#D8D8D8"/>
     <rect id="Rectangle-13-Copy" height="2" width="24" y="9" x="21" fill="#D8D8D8"/>
    </g>
    <g id="User-2" transform="translate(10 34)">
     <path id="Shape-Copy" fill="#52BCA6" d="m7.9981 0c-4.4256 0-7.9981 3.5396-7.9981 7.9245 0 0.2818 0.017774 0.5459 0.035547 0.8101 0.19551 1.9904 1.1553 3.7684 2.5772 5.0544 0.0889 0.07 0.16 0.141 0.2488 0.211 0.4622-0.37 0.9776-0.652 1.5641-0.81l1.3686-0.405c0.4621-0.141 0.7109-0.634 0.551-1.074-0.0356-0.088-0.0889-0.176-0.1422-0.247l-0.942-1.039c-0.6754-0.7571-0.9776-1.7785-0.8176-2.7822l0.2133-1.3912c0.1422-0.9334 0.6754-1.761 1.4574-2.2893 1.1375-0.7573 2.6127-0.7749 3.768-0.0529h0.0178c0.8711 0.5459 1.4401 1.4441 1.5461 2.4654l0.16 1.3208c0.107 0.9686-0.195 1.9195-0.835 2.6594l-0.9778 1.092c-0.071 0.07-0.1066 0.158-0.1421 0.246-0.16 0.458 0.0888 0.951 0.5509 1.074l1.369 0.405c0.568 0.176 1.102 0.458 1.564 0.81 0.089-0.07 0.177-0.14 0.249-0.211 1.421-1.285 2.381-3.064 2.577-5.054 0.035-0.2642 0.035-0.5283 0.035-0.8101 0-4.3673-3.59-7.9069-7.9979-7.9069z"/>
     <path id="Combined-Shape" fill="#52BCA6" d="m83.75 8l-2.5-2.5-1.25 1.25 2.812 2.8125 0.938 0.9375 6.25-6.25-1.25-1.25-5 5z"/>
     <rect id="Rectangle-13" height="4" width="44" y="3" x="21" fill="#D8D8D8"/>
     <rect id="Rectangle-13-Copy" height="2" width="24" y="9" x="21" fill="#D8D8D8"/>
    </g>
    <g id="User-3" transform="translate(10 58)">
     <path id="Shape-Copy" fill="#52BCA6" d="m7.9981 0c-4.4256 0-7.9981 3.5396-7.9981 7.9245 0 0.2818 0.017774 0.5459 0.035547 0.8101 0.19551 1.9904 1.1553 3.7684 2.5772 5.0544 0.0889 0.07 0.16 0.141 0.2488 0.211 0.4622-0.37 0.9776-0.652 1.5641-0.81l1.3686-0.405c0.4621-0.141 0.7109-0.634 0.551-1.074-0.0356-0.088-0.0889-0.176-0.1422-0.247l-0.942-1.039c-0.6754-0.7571-0.9776-1.7785-0.8176-2.7822l0.2133-1.3912c0.1422-0.9334 0.6754-1.761 1.4574-2.2893 1.1375-0.7573 2.6127-0.7749 3.768-0.0529h0.0178c0.8711 0.5459 1.4401 1.4441 1.5461 2.4654l0.16 1.3208c0.107 0.9686-0.195 1.9195-0.835 2.6594l-0.9778 1.092c-0.071 0.07-0.1066 0.158-0.1421 0.246-0.16 0.458 0.0888 0.951 0.5509 1.074l1.369 0.405c0.568 0.176 1.102 0.458 1.564 0.81 0.089-0.07 0.177-0.14 0.249-0.211 1.421-1.285 2.381-3.064 2.577-5.054 0.035-0.2642 0.035-0.5283 0.035-0.8101 0-4.3673-3.59-7.9069-7.9979-7.9069z"/>
     <path id="Combined-Shape" fill="#52BCA6" d="m83.75 8l-2.5-2.5-1.25 1.25 2.812 2.8125 0.938 0.9375 6.25-6.25-1.25-1.25-5 5z"/>
     <rect id="Rectangle-13" height="4" width="44" y="3" x="21" fill="#D8D8D8"/>
     <rect id="Rectangle-13-Copy" height="2" width="24" y="9" x="21" fill="#D8D8D8"/>
    </g>
    <g id="User-4" transform="translate(10 82)">
     <path id="Shape-Copy" fill="#52BCA6" d="m7.9981 0c-4.4256 0-7.9981 3.5396-7.9981 7.9245 0 0.2818 0.017774 0.5459 0.035547 0.8101 0.19551 1.9904 1.1553 3.7684 2.5772 5.0544 0.0889 0.07 0.16 0.141 0.2488 0.211 0.4622-0.37 0.9776-0.652 1.5641-0.81l1.3686-0.405c0.4621-0.141 0.7109-0.634 0.551-1.074-0.0356-0.088-0.0889-0.176-0.1422-0.247l-0.942-1.039c-0.6754-0.7571-0.9776-1.7785-0.8176-2.7822l0.2133-1.3912c0.1422-0.9334 0.6754-1.761 1.4574-2.2893 1.1375-0.7573 2.6127-0.7749 3.768-0.0529h0.0178c0.8711 0.5459 1.4401 1.4441 1.5461 2.4654l0.16 1.3208c0.107 0.9686-0.195 1.9195-0.835 2.6594l-0.9778 1.092c-0.071 0.07-0.1066 0.158-0.1421 0.246-0.16 0.458 0.0888 0.951 0.5509 1.074l1.369 0.405c0.568 0.176 1.102 0.458 1.564 0.81 0.089-0.07 0.177-0.14 0.249-0.211 1.421-1.285 2.381-3.064 2.577-5.054 0.035-0.2642 0.035-0.5283 0.035-0.8101 0-4.3673-3.59-7.9069-7.9979-7.9069z"/>
     <path id="Combined-Shape" fill="#EF767A" d="m84.889 5.4749l-2.475-2.4749-1.414 1.4142 2.475 2.4749-2.475 2.4749 1.414 1.414 2.475-2.4747 2.475 2.4747 1.414-1.414-2.475-2.4749 2.475-2.4749-1.414-1.4142-2.475 2.4749z"/>
     <rect id="Rectangle-13" height="4" width="44" y="3" x="21" fill="#D8D8D8"/>
     <rect id="Rectangle-13-Copy" height="2" width="24" y="9" x="21" fill="#D8D8D8"/>
    </g>
   </g>
   <g id="Large-Description-Box" transform="translate(395 201)" class="box">
    <rect id="Background" rx="4" height="110" width="110" y="0" x="0" fill="#F2F2F2"/>
    <rect id="Box-Three" height="19" width="36" y="56" x="12" fill="#AEAEAE"/>
    <rect id="Box-Two" height="19" width="18" y="56" x="52" fill="#AEAEAE"/>
    <rect id="Title-Two" height="4" width="50" y="48" x="12" fill="#545454"/>
    <rect id="Box-One" height="19" width="36" y="21" x="12" fill="#AEAEAE"/>
    <rect id="Title-One" height="4" width="72" y="13" x="12" fill="#545454"/>
   </g>
   <g id="Description-Box" transform="translate(265 201)" class="box">
    <rect id="Background" rx="4" height="110" width="110" y="0" x="0" fill="#F2F2F2"/>
    <g id="Title2" fill="#545454" transform="translate(12 13)">
     <rect id="Rectangle-15" y="0" x="0" height="4" width="72"/>
     <rect id="Rectangle-15-Copy" y="8" x="0" height="4" width="36"/>
    </g>
    <g id="Paragraph-One" fill="#D8D8D8" transform="translate(12 33)">
     <rect id="Rectangle-15-Copy-2" y="0" x="0" height="2" width="86"/>
     <rect id="Rectangle-15-Copy-4" y="8" x="0" height="2" width="86"/>
     <rect id="Rectangle-15-Copy-3" y="4" x="0" height="2" width="86"/>
     <rect id="Rectangle-15-Copy-5" y="12" x="0" height="2" width="86"/>
     <rect id="Rectangle-15-Copy-7" y="16" x="0" height="2" width="72"/>
     <rect id="Rectangle-15-Copy-6" y="20" x="0" height="2" width="86"/>
     <rect id="Rectangle-15-Copy-9" y="24" x="0" height="2" width="86"/>
     <rect id="Rectangle-15-Copy-8" y="28" x="0" height="2" width="72"/>
     <rect id="Rectangle-15-Copy-11" y="32" x="0" height="2" width="72"/>
     <rect id="Rectangle-15-Copy-10" y="36" x="0" height="2" width="86"/>
     <rect id="Rectangle-15-Copy-13" y="40" x="0" height="2" width="72"/>
    </g>
    <g id="Paragraph-Two" fill="#D8D8D8" transform="translate(12 85)">
     <rect id="Rectangle-15-Copy-14" y="0" x="0" height="2" width="86"/>
     <rect id="Rectangle-15-Copy-17" y="4" x="0" height="2" width="86"/>
     <rect id="Rectangle-15-Copy-16" y="8" x="0" height="2" width="76"/>
    </g>
   </g>
   </g>
   <g id="Add-New-Box" transform="translate(330 225)">
    <use id="Rectangle-10-Copy-4" xlink:href="#path-3" mask="url(#mask-4)" stroke="#52BCA6" stroke-dasharray="4" stroke-width="2"/>
    <path id="Plus" fill="#52BCA6" d="m121 56v4.5h-2v-4.5h-4.5v-2h4.5v-4.555h2v4.555h4.56v2h-4.56zm-1 9c5.52 0 10-4.477 10-10s-4.48-10-10-10-10 4.477-10 10 4.48 10 10 10z"/>
   </g>
   <path id="cursor" fill-rule="evenodd" xmlns="http://www.w3.org/2000/svg" fill="#898686" d="m304.7 83.1l4.77-2.75c0.37-0.22 0.6-0.63 0.56-1.06-0.03-0.44-0.3-0.8-0.7-0.97l-21.3-8.5c-0.42-0.18-0.9-0.08-1.22 0.24-0.3 0.32-0.4 0.8-0.24 1.2l8.5 21.35c0.16 0.4 0.53 0.67 0.96 0.7 0.43 0.04 0.84-0.18 1.06-0.56l2.76-4.78 6.7 6.7c0.2 0.22 0.5 0.34 0.8 0.34 0.28 0 0.57-0.12 0.78-0.33l3.27-3.3c0.43-0.43 0.43-1.14 0-1.58l-6.7-6.7z"/>
  </g>
 </g>
</svg>
